<?xml version="1.0" encoding="utf-8"?>
<!DOCTYPE svg PUBLIC "-//W3C//DTD SVG 1.1//EN" "http://www.w3.org/Graphics/SVG/1.1/DTD/svg11.dtd">
<svg version="1.1" xmlns="http://www.w3.org/2000/svg" xmlns:xlink="http://www.w3.org/1999/xlink" viewBox="0 50 960 1150" xml:space="preserve">
  <style>
    /* <![CDATA[ */
    text {
      font-family: arial;
      stroke-width: 0;
    }

    .room-label {
      font-size: 26px;
    }

    .room-label,
    .room-detail {
      font-style: italic;
    }

    .room-detail {
      transform: translateY(20px);
    }

    .marker-label,
    .marker-vlabel {
      font-size: 12px;
      transform: translateY(-5px);
    }

    .marker-vlabel {
      transform: translateX(10px);
    }
    /* ]]> */
  </style>
  <defs>
    <pattern id="wall-pattern" patternUnits="userSpaceOnUse" width="8" height="8">
      <path stroke="black" stroke-width="1" d="M-2,2 l4,-4
           M0,8 l8,-8
           M6,10 l4,-4"
        />
    </pattern>

    <symbol id="door" viewBox="0 0 85 85">
      <rect width="85" height="10" fill="white" stroke="black" stroke-width="1"/>
      <line x1="10" y1="0" x2="10" y2="75" stroke="black" stroke-width="1"/>
      <path d="M 75 0 A 75 75 0 0 1 10 75" fill="none" stroke="black" stroke-width=".5"/>
    </symbol>

    <symbol id="window" viewBox="0 0 150 38">
      <rect x="0" y="0" width="150" height="38" fill="white" stroke="black" stroke-width="1"/>
      <rect x="0" y="20" width="150" height="10" fill="white" stroke="black" stroke-width="1"/>
    </symbol>

    <marker id="start-arrow" viewBox="0 0 10 10" refX="10" refY="5" markerWidth="10" markerHeight="10" orient="auto" markerUnits="userSpaceOnUse">
      <path d="M 10 2 L 0 5 L 10 8 z"/>
    </marker>

    <marker id="end-arrow" viewBox="0 0 10 10" refX="0" refY="5" markerWidth="10" markerHeight="10" orient="auto" markerUnits="userSpaceOnUse">
      <path d="M 0 2 L 10 5 L 0 8 z"/>
    </marker>
  </defs>

  <g class="apartment" stroke="black" stroke-width="1">
    <rect x="460" y="876" width="60" height="200" fill="white" stroke="black" stroke-width="1" stroke-dasharray="5, 5"/>
    <rect x="286" y="968" width="64" height="108" fill="white" stroke="black" stroke-width="1" stroke-dasharray="5, 5"/>
  	<path class="walls" fill="url(#wall-pattern)" stroke-width="2"
      d="M 100 100
      L 100 235
      L 360 235
      L 360 273
      L 100 273
      L 100 755
      L 375 755
      L 375 773
      L 368 773
      L 368 865
      L 350 865
      L 350 773
      L 100 773
      L 100 1076
      L 350 1076
      L 350 968
      L 286 968
      L 286 950
      L 368 950
      L 368 1076
      L 368 1114
      L 68 1114
      L 68 100
      Z"
    />
  	<path class="walls" fill="url(#wall-pattern)" stroke-width="2"
      d="M 520 100
      L 885 100
      L 885 1114
      L 460 1114
      L 460 1076
      L 520 1076
      L 520 876
      L 460 876
      L 460 858
      L 552 858
      L 552 1076
      L 852 1076
      L 852 876
      L 637 876
      L 637 858
      L 790 858
      L 790 773
      L 637 773
      L 637 680
      L 655 680
      L 655 755
      L 852 755
      L 852 585
      L 655 585
      L 655 595
      L 637 595
      L 637 567
      L 852 567
      L 852 138
      L 552 138
      L 552 773
      L 460 773
      L 460 755
      L 520 755
      L 520 273
      L 445 273
      L 445 235
      L 520 235
      Z"
    />
  	<path class="isolation" fill="none" stroke-width="10"
      d="M 68 105
      L 100 105
      M 520 105
      L 880 105
      L 880 1109
      L 460 1109
      M 368 1109
      L 68 1109"
    />
  	<path class="isolation" fill="none" stroke-width="4" stroke-dasharray="20, 10"
      d="M 71 1109
      L 71 105"
    />
    <path class="terrace" fill="none" stroke-width="2" stroke-dasharray="5, 5"
      d="M 100 101
      L 520 101"
    />
  </g>

  <g class="doors">
    <use href="#door" width="85" height="85" transform="scale(1 -1) rotate(180) translate(-445 250)" class="terrace"/>
    <use href="#door" width="85" height="85" transform="scale(1 -1) rotate(90) translate(-950 -364)" class="kitchen"/>
    <use href="#door" width="85" height="85" transform="rotate(180) translate(-460 -769)"/>
    <use href="#door" width="85" height="85" transform="rotate(180) translate(-460 -1105) scale(1.08)"/>
    <use href="#door" width="85" height="85" transform="translate(552 862)"/>
    <use href="#door" width="85" height="85" transform="scale(1 -1) translate(552 -582)"/>
    <use href="#door" width="85" height="85" transform="scale(1 -1) rotate(-90) translate(595 640)"/>
    <use href="#door" width="85" height="85" transform="scale(1 -1) rotate(-90) translate(773 640)"/>

    <rect x="520" y="350" width="32" height="150" fill="white" stroke="black"/>
    <rect x="530" y="350" width="12" height="150" fill="white" stroke="black"/>
    <line x1="477" y1="360" x2="542" y2="360" stroke="black" stroke-width="1"/>
    <path d="M 477 360 A 65 65 0 0 0 542 425" fill="none" stroke="black" stroke-width=".5"/>
    <line x1="477" y1="490" x2="542" y2="490" stroke="black" stroke-width="1"/>
    <path d="M 477 490 A 65 65 0 0 1 542 425" fill="none" stroke="black" stroke-width=".5"/>
  </g>

  <g class="windows">
    <use href="#window" width="150" height="38" transform="translate(160 235)" class="terrace"/>
    <use href="#window" width="150" height="38" transform="translate(630 100)" class="room"/>
    <use href="#window" width="150" height="38" transform="rotate(180) translate(-270 -1114)" class="kitchen"/>
    <use href="#window" width="150" height="38" transform="rotate(180) translate(-840 -1114)" class="small-room"/>
    <use href="#window" width="150" height="38" transform="rotate(90) translate(650 -886) scale(0.3 0.9)" class="bathroom"/>
  </g>

  <g class="labels" text-anchor="middle" stroke="black" stroke-width=".5" marker-start="url(#start-arrow)" marker-end="url(#end-arrow)">
    <text class="room-label" x="300" y="180">Terrace</text>
    <text class="room-detail" x="300" y="180" >5,6 m²</text>
    <line x1="110" y1="120" x2="510" y2="120"/>
    <text class="marker-label" x="300" y="120" >4,15 m</text>
    <line x1="490" y1="110" x2="490" y2="225"/>
    <text class="marker-vlabel" x="490" y="170" writing-mode="tb-rl">1,35 m</text>

    <text class="room-label" x="300" y="500">Living room</text>
    <text class="room-detail" x="300" y="500" >wooden floor, 20,13 m²</text>
    <line x1="110" y1="340" x2="510" y2="340"/>
    <text class="marker-label" x="300" y="340" >4,15 m</text>
    <line x1="490" y1="282" x2="490" y2="745"/>
    <text class="marker-vlabel" x="490" y="600" writing-mode="tb-rl">4,85 m</text>

    <text class="room-label" x="702" y="350">Room</text>
    <text class="room-detail" x="702" y="350" >wooden floor, 12,75 m²</text>
    <line x1="562" y1="200" x2="842" y2="200"/>
    <text class="marker-label" x="702" y="200" >3,00 m</text>
    <line x1="810" y1="148" x2="810" y2="557"/>
    <text class="marker-vlabel" x="810" y="353" writing-mode="tb-rl">4,25 m</text>

    <text class="room-label" x="753" y="660">Bathroom</text>
    <text class="room-detail" x="753" y="660" >3,40 m²</text>
    <line x1="664" y1="730" x2="842" y2="730"/>
    <text class="marker-label" x="753" y="730" >2,00 m</text>
    <line x1="810" y1="596" x2="810" y2="744"/>
    <text class="marker-vlabel" x="810" y="670" writing-mode="tb-rl">1,70 m</text>

    <text class="room-label" x="715" y="808">WC</text>
    <text class="room-detail" x="715" y="808" >1,32 m²</text>
    <line x1="650" y1="850" x2="780" y2="850"/>
    <text class="marker-label" x="715" y="850" >1,55 m</text>
    <line x1="766" y1="783" x2="766" y2="848"/>
    <text class="marker-vlabel" x="766" y="815" writing-mode="tb-rl">0,85 m</text>

    <text class="room-label" x="702" y="958">Room</text>
    <text class="room-detail" x="702" y="958" >wooden floor, 6,00 m²</text>
    <line x1="562" y1="1050" x2="842" y2="1050"/>
    <text class="marker-label" x="702" y="1050" >3,00 m</text>
    <line x1="810" y1="886" x2="810" y2="1066"/>
    <text class="marker-vlabel" x="810" y="976" writing-mode="tb-rl">2,00 m</text>

    <text class="room-label" x="225" y="900">Kitchen</text>
    <text class="room-detail" x="225" y="900" >tiled, 7,50 m²</text>
    <line x1="110" y1="820" x2="340" y2="820"/>
    <text class="marker-label" x="225" y="820" >2,50 m</text>
    <line x1="120" y1="782" x2="120" y2="1066"/>
    <text class="marker-vlabel" x="120" y="924" writing-mode="tb-rl">3,00 m</text>

    <line x1="110" y1="1050" x2="276" y2="1050"/>
    <text class="marker-label" x="193" y="1050" >1,86 m</text>
    <line x1="296" y1="1050" x2="340" y2="1050"/>
    <text class="marker-label" x="318" y="1050" >0,64 m</text>

    <line x1="562" y1="730" x2="628" y2="730"/>
    <text class="marker-label" x="595" y="730" >0,85 m</text>

    <line x1="490" y1="784" x2="490" y2="848"/>
    <text class="marker-vlabel" x="490" y="816" writing-mode="tb-rl">0,85 m</text>

    <line x1="490" y1="886" x2="490" y2="1066"/>
    <text class="marker-vlabel" x="490" y="976" writing-mode="tb-rl">2,00 m</text>

  </g>

  <path class="entrance" fill="black" stroke="none"
    d="M 450 1150
    L 378 1150
    L 414 1130
    Z"
  />
</svg>
